<svg width="220" height="64" viewBox="0 0 220 64" xmlns="http://www.w3.org/2000/svg" font-family="Inter, -apple-system, BlinkMacSystemFont, sans-serif">
  <title>Pebble logo — primary (light backgrounds)</title>
  <g transform="translate(0,2) scale(0.56)">
    <path d="M50,14 C66,10 82,20 87,38 C92,56 86,74 70,84 C54,94 32,92 20,78 C8,64 8,44 18,30 C25,20 38,17 50,14 Z" fill="oklch(0.68 0.19 145)"/>
    <path d="M38,32 C44,28 52,29 55,35 C58,41 54,47 47,47 C40,47 34,41 34,36 C34,34.5 35.5,33 38,32 Z" fill="#F7F5F1" opacity="0.55"/>
  </g>
  <text x="64" y="42" font-size="30" font-weight="800" letter-spacing="-0.5" fill="#1C1B19">Pebble</text>
</svg>
